<svg width="50" height="50" viewBox="0 0 50 50" fill="none" xmlns="http://www.w3.org/2000/svg">
<rect opacity="0.9" width="50" height="50" rx="25" fill="#FFFFFF"/>
<g clip-path="url(#clip0_2381_505)">
<path d="M21.22 15H24.66C24.67 15.1 24.67 15.19 24.67 15.29C24.67 17.41 24.67 19.54 24.67 21.66C25.13 21.65 25.6 21.66 26.06 21.66C26.36 21.66 26.66 21.65 26.95 21.67C27.05 21.67 27.14 21.66 27.24 21.66C27.43 21.66 27.61 21.66 27.8 21.66C27.9 21.66 28.01 21.66 28.11 21.67H28.09C27.99 21.67 27.9 21.67 27.8 21.67C27.13 21.67 26.47 21.67 25.8 21.67C25.42 21.67 25.04 21.67 24.66 21.67C23.53 21.67 22.4 21.67 21.26 21.67C20.88 21.66 20.49 21.58 20.12 21.44C19.55 21.22 19.05 20.84 18.68 20.35C18.34 19.9 18.11 19.36 18.03 18.79C17.95 18.19 18.03 17.57 18.27 17.01C18.54 16.37 19.03 15.82 19.62 15.47C20.11 15.18 20.66 15.02 21.22 15Z" fill="#F24E1E"/>
<path d="M24.66 15H28.08C28.64 15.02 29.2 15.17 29.68 15.46C30.17 15.75 30.59 16.17 30.88 16.66C31.11 17.05 31.25 17.48 31.31 17.93C31.33 18.14 31.36 18.34 31.33 18.55C31.29 19.06 31.14 19.56 30.89 20C30.6 20.51 30.17 20.94 29.65 21.23C29.18 21.5 28.65 21.65 28.12 21.67C28.02 21.66 27.91 21.66 27.81 21.66C27.62 21.66 27.44 21.66 27.25 21.66C27.15 21.66 27.06 21.67 26.96 21.67C26.66 21.65 26.36 21.66 26.07 21.66C25.61 21.66 25.14 21.66 24.68 21.66C24.68 19.54 24.68 17.41 24.68 15.29C24.67 15.19 24.67 15.1 24.66 15Z" fill="#FF7262"/>
<path d="M19.69 22.0999C20.17 21.8299 20.72 21.6799 21.27 21.6699C22.4 21.6699 23.53 21.6699 24.67 21.6699C24.67 22.7299 24.67 23.7799 24.67 24.8399C24.67 24.8499 24.67 24.8599 24.67 24.8599C24.67 26.0199 24.67 27.1799 24.67 28.3299C23.53 28.3299 22.4 28.3299 21.26 28.3299C20.81 28.3199 20.36 28.2199 19.95 28.0299C19.43 27.7899 18.97 27.4099 18.63 26.9499C18.3 26.4899 18.08 25.9399 18.02 25.3699C17.95 24.7599 18.05 24.1399 18.31 23.5899C18.6 22.9699 19.09 22.4399 19.69 22.0999Z" fill="#A259FF"/>
<path d="M27.81 21.6699C27.91 21.6699 28 21.6699 28.1 21.6699C28.67 21.6899 29.24 21.8499 29.73 22.1499C30.27 22.4799 30.72 22.9599 31 23.5199C31.23 23.9799 31.34 24.4999 31.35 25.0199C31.34 25.4399 31.26 25.8599 31.1 26.2499C30.79 27.0199 30.18 27.6599 29.44 28.0099C28.93 28.2499 28.36 28.3599 27.8 28.3199C27.25 28.2899 26.71 28.1099 26.25 27.8199C25.75 27.5099 25.33 27.0599 25.06 26.5299C24.79 26.0099 24.66 25.4299 24.68 24.8499C24.68 24.8399 24.68 24.8299 24.68 24.8299C24.69 24.6999 24.7 24.5699 24.72 24.4499C24.81 23.8699 25.07 23.3099 25.45 22.8599C25.84 22.3899 26.37 22.0299 26.95 21.8399C27.22 21.7399 27.51 21.6899 27.81 21.6699Z" fill="#1ABCFE"/>
<path d="M21.26 28.3301C22.4 28.3301 23.53 28.3301 24.67 28.3301C24.67 29.4401 24.67 30.5601 24.67 31.6701C24.67 32.1901 24.55 32.7101 24.31 33.1701C24.03 33.7201 23.6 34.1901 23.07 34.5101C22.58 34.8101 22.01 34.9801 21.44 35.0001H21.24C20.98 34.9901 20.73 34.9601 20.48 34.8901C19.88 34.7301 19.34 34.4101 18.91 33.9601C18.37 33.3801 18.03 32.6101 18 31.8101C17.97 31.2301 18.1 30.6401 18.37 30.1201C18.66 29.5501 19.13 29.0701 19.68 28.7601C20.16 28.4901 20.71 28.3501 21.26 28.3301Z" fill="#0ACF83"/>
</g>
<defs>
<clipPath id="clip0_2381_505">
<rect width="13.34" height="20" fill="white" transform="translate(18 15)"/>
</clipPath>
</defs>
</svg>
