<svg width="50" height="50" viewBox="0 0 50 50" fill="none" xmlns="http://www.w3.org/2000/svg">
<rect width="50" height="50" rx="25" fill="#EAB700"/>
<path d="M25 0C38.8125 0 50 11.1875 50 25C50 38.8125 38.8125 50 25 50C11.1875 50 0 38.8125 0 25C0 11.1875 11.1875 0 25 0Z" fill="#FFCA28" fill-opacity="0.72"/>
<path d="M25 0C38.8125 0 50 11.1875 50 25C50 38.8125 38.8125 50 25 50C11.1875 50 0 38.8125 0 25C0 11.1875 11.1875 0 25 0Z" fill="url(#paint0_linear_2381_530)" fill-opacity="0.16"/>
<path d="M21.8875 19.2124H25.0375V30.1624C25.0375 31.6999 24.6125 32.9249 23.775 33.8499C22.9375 34.7749 21.85 35.2374 20.525 35.2374C19.1 35.2374 17.9875 34.8124 17.2 33.9499C16.4 33.0999 16 31.8999 16 30.3624H19.15C19.15 31.8499 19.6 32.5999 20.5125 32.5999C21.425 32.5999 21.8875 31.7374 21.8875 30.0124V19.2124Z" fill="white"/>
<path d="M34.0751 30.8875C34.0751 30.2375 33.9126 29.7625 33.5876 29.4375C33.2626 29.1 32.6751 28.7625 31.8251 28.4C30.2626 27.8 29.1376 27.1 28.4626 26.2875C27.7751 25.475 27.4376 24.525 27.4376 23.425C27.4376 22.0875 27.9001 21.025 28.8251 20.225C29.7501 19.4 30.9251 19 32.3626 19C33.3126 19 34.1751 19.2125 34.9126 19.625C35.6626 20.025 36.2376 20.6 36.6376 21.35C37.0501 22.1 37.2501 22.9375 37.2501 23.8875H34.1126C34.1126 23.15 33.9501 22.5875 33.6376 22.2C33.3251 21.8125 32.8876 21.6125 32.3001 21.6125C31.7501 21.6125 31.3251 21.775 31.0126 22.1125C30.7001 22.4375 30.5501 22.875 30.5501 23.4375C30.5501 23.875 30.7251 24.2625 31.0626 24.625C31.4001 24.975 32.0126 25.3375 32.8751 25.7125C34.3876 26.275 35.5001 26.95 36.1751 27.7625C36.8626 28.575 37.2126 29.6 37.2126 30.8625C37.2126 32.2375 36.7751 33.3125 35.9126 34.0875C35.0876 34.8625 33.9126 35.25 32.4251 35.25C31.4251 35.25 30.5001 35.0375 29.6751 34.625C28.8501 34.2 28.2001 33.6 27.7251 32.825C27.2626 32.0375 27.0251 31.125 27.0251 30.05H30.1751C30.1751 30.9625 30.3501 31.625 30.7001 32.0375C31.0501 32.45 31.6251 32.6625 32.4126 32.6625C33.5251 32.65 34.0751 32.0625 34.0751 30.8875Z" fill="white"/>
<defs>
<linearGradient id="paint0_linear_2381_530" x1="25" y1="0" x2="25" y2="50" gradientUnits="userSpaceOnUse">
<stop stop-color="white" stop-opacity="0.5"/>
<stop offset="1" stop-opacity="0.5"/>
</linearGradient>
</defs>
</svg>
