<svg width="50" height="50" viewBox="0 0 50 50" fill="none" xmlns="http://www.w3.org/2000/svg">
<rect opacity="0.9" width="50" height="50" rx="25" fill="#FFFFFF"/>
<g clip-path="url(#clip0_2381_513)">
<mask id="mask0_2381_513" style="mask-type:alpha" maskUnits="userSpaceOnUse" x="0" y="-2" width="51" height="51">
<path fill-rule="evenodd" clip-rule="evenodd" d="M15.5 -1.25H35.5C43.7875 -1.25 50.5 5.4625 50.5 13.75V33.75C50.5 42.0375 43.7875 48.75 35.5 48.75H15.5C7.2125 48.75 0.5 42.0375 0.5 33.75V13.75C0.5 5.4625 7.2125 -1.25 15.5 -1.25Z" fill="white"/>
</mask>
<g mask="url(#mask0_2381_513)">
<path d="M13 15C16.125 16.8125 19.25 18.6375 22.375 20.45C22.375 21.6625 22.375 22.875 22.375 24.0875C20.2875 22.875 18.2125 21.6625 16.125 20.45C16.125 22.875 16.125 25.3 16.125 27.725C15.0875 27.125 14.0375 26.5125 13 25.9125C13 22.275 13 18.6375 13 15Z" fill="#00B0FF"/>
<path d="M22.375 27.7373C22.7875 28.0123 23.225 28.2373 23.65 28.4998C24.2625 28.8498 24.85 29.2123 25.4625 29.5498C26.525 30.1248 27.575 30.7623 28.625 31.3623C28.625 32.5748 28.625 33.7873 28.625 34.9998C26.5375 33.7873 24.4625 32.5748 22.375 31.3623C22.375 30.1498 22.375 28.9373 22.375 27.7373Z" fill="#00B0FF"/>
<path d="M22.375 20.45C25.5 18.6375 28.625 16.825 31.75 15C31.75 18.6375 31.75 22.275 31.75 25.9125C29.7125 27.1 27.6625 28.2875 25.625 29.475C25.575 29.5 25.525 29.55 25.475 29.5375C24.8625 29.2 24.2625 28.8375 23.6625 28.4875C23.2375 28.2375 22.8 28 22.4 27.7375C22.8125 27.4625 23.25 27.2375 23.675 26.9875C25.3375 26.025 26.9875 25.0625 28.65 24.1C28.65 22.8875 28.65 21.675 28.65 20.4625C26.5625 21.675 24.4875 22.8875 22.4 24.1C22.375 22.875 22.375 21.6625 22.375 20.45Z" fill="#0081CB"/>
<path d="M34.875 16.8125C35.925 16.2125 36.9625 15.6 38 15C38 16.2125 38 17.425 38 18.6375C36.9625 19.2375 35.9125 19.85 34.875 20.45C34.875 19.2375 34.875 18.025 34.875 16.8125Z" fill="#0081CB"/>
<path d="M34.875 24.0874C35.9125 23.4874 36.9625 22.8749 38 22.2749C38 24.6999 38 27.1249 38 29.5499C34.875 31.3624 31.75 33.1874 28.625 34.9999C28.625 33.7874 28.625 32.5749 28.625 31.3624C30.7125 30.1499 32.7875 28.9374 34.875 27.7249C34.875 26.5124 34.875 25.2999 34.875 24.0874Z" fill="#0081CB"/>
</g>
</g>
<defs>
<clipPath id="clip0_2381_513">
<rect width="25" height="20" fill="white" transform="translate(13 15)"/>
</clipPath>
</defs>
</svg>
