<svg width="50" height="50" viewBox="0 0 50 50" fill="none" xmlns="http://www.w3.org/2000/svg">
    <path d="M18.9458 21.6077C20.5222 23.9098 22.1404 26.1869 23.6668 28.5222C27.5621 34.4561 31.7576 40.1572 36.0866 45.8168C36.9207 46.8473 36.6038 47.1382 35.6112 47.6202C20.9727 54.7591 2.57231 45.0522 0.278528 28.9544C-1.66493 15.3913 6.7345 3.32416 20.0885 0.523456C35.2358 -2.67617 49.9828 9.21645 49.9995 24.6245C50.0495 33.2427 46.4545 40.0741 39.5899 45.2766C38.6974 45.9498 38.3888 45.7752 37.8382 44.9359C31.7326 35.6611 25.5769 26.4196 19.488 17.1282C19.2329 16.6492 18.833 16.2622 18.345 16.0221C17.857 15.7819 17.3056 15.7008 16.7688 15.7902C15.9847 15.8733 15.5927 16.1808 15.5927 16.9953C15.5927 23.1286 15.5927 29.2619 15.5927 35.3952C15.5927 36.4922 16.26 36.6335 17.1525 36.6418C18.045 36.6501 18.6372 36.4091 18.6372 35.3287C18.6372 30.8077 18.6372 26.2866 18.6372 21.7739L18.9458 21.6077Z"
          fill="black"/>
    <path d="M33.8957 33.0679C33.0616 31.7632 32.2275 30.4501 31.335 29.1536C31.1118 28.8078 31.0038 28.4006 31.0264 27.9901C31.0264 24.1256 31.0764 20.2611 31.0264 16.3967C31.0264 15.3578 31.4935 15.0171 32.461 15.0171C33.4286 15.0171 34.1293 15.1501 34.1293 16.3219C34.1293 21.8817 34.1293 32.9931 34.1293 32.9931V33.3505L33.8957 33.0679Z"
          fill="#FDFDFD"/>
</svg>
