<svg width="50" height="51" viewBox="0 0 50 51" fill="none" xmlns="http://www.w3.org/2000/svg">
<rect y="1" width="50" height="50" rx="25" fill="#333333"/>
<path d="M25 0C38.8125 0 50 11.1875 50 25C50 38.8125 38.8125 50 25 50C11.1875 50 0 38.8125 0 25C0 11.1875 11.1875 0 25 0Z" fill="#007ACC" fill-opacity="0.72"/>
<path d="M25 0C38.8125 0 50 11.1875 50 25C50 38.8125 38.8125 50 25 50C11.1875 50 0 38.8125 0 25C0 11.1875 11.1875 0 25 0Z" fill="url(#paint0_linear_2381_539)" fill-opacity="0.16"/>
<path d="M25.3375 21.8749H21.65V35.0249H18.625V21.8749H15V19.2124H25.3375V21.8749Z" fill="white"/>
<path d="M33.2125 30.8872C33.2125 30.2372 33.05 29.7622 32.7375 29.4372C32.425 29.0997 31.8625 28.7622 31.05 28.3997C29.55 27.7997 28.475 27.0997 27.825 26.2872C27.175 25.4747 26.8375 24.5247 26.8375 23.4247C26.8375 22.0872 27.2875 21.0247 28.175 20.2247C29.075 19.4122 30.2 19.0122 31.575 19.0122C32.4875 19.0122 33.3125 19.2247 34.025 19.6372C34.7375 20.0372 35.2875 20.6122 35.675 21.3622C36.0625 22.1122 36.2625 22.9497 36.2625 23.8997H33.2625C33.2625 23.1622 33.1125 22.5997 32.8125 22.2122C32.525 21.8247 32.0875 21.6247 31.5375 21.6247C31.0125 21.6247 30.6 21.7872 30.3125 22.1247C30.0125 22.4497 29.875 22.8872 29.875 23.4497C29.875 23.8872 30.0375 24.2747 30.3625 24.6372C30.6875 24.9872 31.275 25.3497 32.1 25.7247C33.55 26.2872 34.6125 26.9622 35.2625 27.7747C35.925 28.5872 36.2625 29.6122 36.2625 30.8747C36.2625 32.2497 35.85 33.3247 35.025 34.0997C34.175 34.8622 33.05 35.2497 31.625 35.2497C30.6625 35.2497 29.7875 35.0372 28.9875 34.6247C28.2 34.1997 27.575 33.5997 27.125 32.8247C26.675 32.0372 26.4625 31.1247 26.4625 30.0497H29.4875C29.4875 30.9622 29.65 31.6247 29.9875 32.0372C30.325 32.4497 30.8625 32.6622 31.625 32.6622C32.675 32.6497 33.2125 32.0622 33.2125 30.8872Z" fill="white"/>
<defs>
<linearGradient id="paint0_linear_2381_539" x1="25" y1="0" x2="25" y2="50" gradientUnits="userSpaceOnUse">
<stop stop-color="white" stop-opacity="0.5"/>
<stop offset="1" stop-opacity="0.5"/>
</linearGradient>
</defs>
</svg>
